<svg xmlns="http://www.w3.org/2000/svg" viewBox="0 0 200 180" fill="none">
  <defs>
    <linearGradient id="night" x1="0" y1="0" x2="1" y2="1">
      <stop offset="0%" stop-color="#1c1c1c"/>
      <stop offset="100%" stop-color="#3d2050"/>
    </linearGradient>
  </defs>
  <path d="M30 40 Q40 10 100 10 Q160 10 170 40 L160 130 Q155 170 130 170 L120 140 Q100 155 80 140 L70 170 Q45 170 40 130 Z" fill="url(#night)"/>
  <path d="M30 40 Q40 10 100 10 Q160 10 170 40 L165 60 Q100 75 35 60 Z" fill="#2a1835"/>
  <circle cx="85" cy="80" r="2" fill="#c9a96e" opacity="0.6"/>
  <circle cx="115" cy="90" r="1.5" fill="#c9a96e" opacity="0.5"/>
  <circle cx="100" cy="70" r="1.5" fill="#c9a96e" opacity="0.7"/>
  <circle cx="90" cy="100" r="1" fill="#c9a96e" opacity="0.4"/>
  <circle cx="120" cy="75" r="1" fill="#c9a96e" opacity="0.5"/>
  <circle cx="105" cy="110" r="1.5" fill="#c9a96e" opacity="0.3"/>
  <path d="M130 20 L132 26 L138 26 L133 30 L135 36 L130 32 L125 36 L127 30 L122 26 L128 26 Z" fill="#c9a96e" opacity="0.6"/>
</svg>
