<svg xmlns="http://www.w3.org/2000/svg" viewBox="0 0 200 180" fill="none">
  <path d="M30 40 Q40 10 100 10 Q160 10 170 40 L160 130 Q155 170 130 170 L120 140 Q100 155 80 140 L70 170 Q45 170 40 130 Z" fill="#1c1c1c" opacity="0.95"/>
  <path d="M30 40 Q40 10 100 10 Q160 10 170 40 L165 60 Q100 75 35 60 Z" fill="#2d2d2d"/>
  <path d="M50 48 L80 48" stroke="#c4708f" stroke-width="2.5" stroke-linecap="round"/>
  <path d="M120 48 L150 48" stroke="#c4708f" stroke-width="2.5" stroke-linecap="round"/>
  <path d="M90 48 L110 48" stroke="#c4708f" stroke-width="2.5" stroke-linecap="round"/>
  <path d="M65 55 Q100 65 135 55" stroke="#444" stroke-width="1.5" fill="none" stroke-linecap="round"/>
</svg>
